<svg width="809" height="545.1" viewBox="0 0 809 545.1" xmlns="http://www.w3.org/2000/svg" xmlns:xlink="http://www.w3.org/1999/xlink" overflow="hidden"><defs></defs><g><g><path d="M512.5 445.6C513.5 444.3 606.2 421.7 620.4 418.2 634.6 414.7 642.6 410.6 652.7 418.2 662.8 425.8 706 487.6 712.3 486.6 718.6 485.6 733.9 482.8 735.3 462.7 736.7 442.6 739.5 393.6 739.5 393.6L712.4 376.2C712.4 376.2 563.9 398.4 562.9 398.8 561.9 399.1 512.6 434.9 512.6 434.9L512.6 445.6Z" fill="#455A64"/><g><path d="M588.4 395.1 552.3 402.2C552.3 402.2 553.4 445.6 575.3 445.4 597.2 445.2 598.5 396.1 598.5 396.1L588.4 395.1ZM578.6 435.9C575.7 435.9 573.3 433.1 573.3 429.6 573.3 426.1 575.7 423.3 578.6 423.3 581.5 423.3 583.9 426.1 583.9 429.6 583.9 433 581.5 435.9 578.6 435.9Z" fill="#FF725E"/><path d="M588.2 395.1 552.1 402.2C552.1 402.2 553.2 445.6 575.1 445.4 597 445.2 598.3 396.1 598.3 396.1L588.2 395.1ZM578.5 435.8C575.6 435.8 573.2 433 573.2 429.5 573.2 426 575.6 423.2 578.5 423.2 581.4 423.2 583.8 426 583.8 429.5 583.8 433 581.4 435.8 578.5 435.8Z" opacity="0.3"/><path d="M593.1 395.1 557 402.2C557 402.2 558.1 445.6 580 445.4 601.9 445.2 603.2 396.1 603.2 396.1L593.1 395.1ZM583.4 435.8C580.5 435.8 578.1 433 578.1 429.5 578.1 426 580.5 423.2 583.4 423.2 586.3 423.2 588.7 426 588.7 429.5 588.7 433 586.3 435.8 583.4 435.8Z" fill="#FF725E"/></g><path d="M1 461.2C1 461.2-10.1 483.2 61.1 511.3 131.9 539.2 192.7 559.8 339.8 532 486.9 504.3 504 448.9 562.5 414.2 562.5 414.2 708.1 387.2 715.8 389.6 723.5 391.9 737.4 425.8 765.1 425 792.8 424.2 803.6 413.4 808.2 397.3 812.8 381.1 786.6 363.4 786.6 363.4 786.6 363.4 786.6 331.8 769.7 326.4 752.8 321 752.8 321 752.8 321 752.8 321 739.7 221.6 708.1 167 676.5 112.3 659.6 77.7 578.7 43 578.7 43 498.6-20.9 385.4 8.3 272.2 37.6 202.8 123.1 202.8 123.1 202.8 123.1 133.8 208.9 120 341.4 120 341.4 98.2 338.7 95.6 346.8 93.4 353.5 92.6 360.9 92 374.1L91.2 388.9C91.2 388.8-3.2 442 1 461.2Z" fill="#FF725E"/><path d="M242.3 109C242.3 109 266.2 110.6 272.8 119.8 272.8 119.8 286.9 68.9 267.5 68.8 252.6 68.6 242.3 109 242.3 109Z" fill="#FFFFFF" opacity="0.3"/><g><path d="M577.3 41C577.3 41 577 40.9 576.5 40.6 575.9 40.3 575.1 39.9 574.2 39.5 572.2 38.6 569.1 37.2 565.2 35.6 557.2 32.5 545.5 28.6 530.5 25.6 515.6 22.5 497.4 20.1 477.3 19.8 457.1 19.6 435 22.7 412.6 29.2 390.3 35.8 369.9 45.1 352.7 55.6 344.1 60.8 336.5 66.7 329.4 72.2 322.3 77.7 315.9 83.1 310 88 298.3 97.9 289.1 106.2 282.8 112 279.7 114.9 277.3 117.2 275.7 118.8 274.9 119.6 274.3 120.2 273.9 120.6 273.5 121 273.4 121.3 273.4 121.3 273 121 276.2 117.4 282.4 111.5 288.6 105.5 297.7 97.1 309.2 87.1 315 82.1 321.4 76.7 328.5 71.1 335.6 65.5 343.2 59.6 351.9 54.3 369.2 43.7 389.7 34.3 412.2 27.6 434.7 21 457.1 18 477.4 18.2 497.7 18.6 515.9 21.1 530.9 24.4 545.9 27.6 557.7 31.7 565.6 35 569.6 36.6 572.5 38.1 574.6 39.2 575.6 39.7 576.3 40.2 576.8 40.5 577.1 40.8 577.3 40.9 577.3 41Z" fill="#263238"/></g><g><path d="M692.2 139.9C692.2 139.9 691.8 139.4 691.1 138.5 690.4 137.5 689.4 136.1 688.2 134.2 686.9 132.3 685.2 130.1 683.2 127.4 681.1 124.8 678.7 121.8 675.8 118.6 664.4 105.7 645.6 88.5 618.1 74.2 604.4 67 588.6 60.7 570.8 56.8 553.1 52.9 533.5 51.5 513.2 53.4 492.9 55.5 471.7 59.5 450.7 67 429.8 74.4 409.3 85.5 390.8 100 372.1 114.5 356.6 131.7 343 149.2 329.4 166.8 317.7 184.9 307.2 202.5 296.6 220 288.4 237.7 281.4 254.5 274.5 271.3 269.3 287.5 265.2 302.4 257 332.3 253.5 357.2 251.2 374.3 250.6 378.6 250.2 382.4 249.3 385.7 248.4 388.9 248.2 391.8 249.1 393.8 249.9 395.9 251.5 396.9 252.5 397.4 253.5 397.9 254.1 398 254.1 398 254.1 398 253.5 398 252.4 397.5 251.4 397 249.7 396 248.8 393.8 247.8 391.6 248 388.6 248.9 385.4 249.6 382.2 250 378.3 250.6 374.1 252.7 356.9 256 331.9 264.1 301.9 268.1 286.9 273.2 270.7 280.2 253.8 287.1 236.9 295.4 219.2 305.9 201.6 316.4 184 328.1 165.8 341.7 148.1 355.3 130.4 371 113.1 389.8 98.5 408.5 83.9 429.1 72.7 450.2 65.3 471.3 57.8 492.7 53.8 513.1 51.7 533.6 49.9 553.3 51.3 571.2 55.3 589.1 59.2 605 65.6 618.7 73 632.5 80.2 644.1 88.3 653.7 96 663.2 103.8 670.7 111.4 676.4 118 679.3 121.2 681.6 124.3 683.7 126.9 685.6 129.6 687.3 131.9 688.6 133.8 689.8 135.7 690.7 137.1 691.4 138.2 691.9 139.4 692.2 139.9 692.2 139.9Z" fill="#263238"/></g><path d="M682.9 128.5C660.5 93.3 628.7 71.5 601.4 58.4 570.9 43.7 536.9 38 503.2 41.3 397.3 51.5 345.3 111 298.4 188.6 245.6 276 243 363.4 239.7 374.5 236.4 385.6 248.2 391.6 248.2 391.6 248.2 391.6 259 324.4 260.3 319.1 261.6 313.8 278 256.2 289.7 233.6 301.3 211 339.1 144.4 367.4 119.8 395.7 95.2 424.4 70.5 481.3 57.5 538.2 44.5 566.4 52.7 586.6 60.4 606.8 68.1 643 87.2 654.7 97.8 666.3 108.2 682.9 128.5 682.9 128.5Z" opacity="0.3"/><g><path d="M520.1 337.1C520.1 337.1 520.1 329.4 531.9 327.1 543.7 324.8 692.6 303.5 698.5 303.8 704.4 304.2 710.7 310.1 711.8 316.7 712.9 323.3 711.8 364.4 711.8 364.4L711.4 366.3C709.4 375.5 702.1 382.6 692.8 384.2 654 391 554.5 408.3 547.4 406.8 538.5 405 531.9 400.2 531.9 400.2L520.1 337.1Z" fill="#FF725E"/><g><path d="M520.1 337.1C520.1 337.1 520.2 337.5 520.4 338.2 520.6 339 520.8 340.1 521.1 341.4 521.7 344.3 522.5 348.5 523.6 353.8 525.7 364.7 528.7 380.5 532.5 400.2L532.3 399.9C534.6 401.5 537.2 402.8 540 404 542.8 405.1 545.8 406.3 548.8 406.4 555 406.2 561.8 405.1 568.7 404.2 582.6 402.2 597.7 399.8 613.7 397.1 629.7 394.4 646.6 391.5 664.2 388.5 673 387 682 385.4 691.1 383.8 695.6 383.2 699.9 381.5 703.3 378.5 706.7 375.5 709.3 371.5 710.3 367 710.5 366.1 710.7 365.2 710.9 364.3L710.9 364.5C711.1 355.8 711.3 347.2 711.4 338.7 711.4 334.5 711.4 330.2 711.4 326.1 711.4 324 711.3 321.9 711.2 319.9 711.1 317.8 710.9 315.9 710.1 314.1 708.6 310.5 705.7 307.5 702.3 305.8 700.6 305 698.8 304.5 696.8 304.9 694.9 305 692.9 305.3 690.9 305.5 683.1 306.5 675.4 307.5 667.9 308.4 638 312.5 611.1 316.2 588.5 319.4 566 322.6 547.7 325.2 535 327.1 531.8 327.6 529.1 328.1 526.9 329.1 524.7 330.1 523.1 331.4 522 332.7 520.1 335.1 520.2 337.1 520.1 337.1 520.1 337.1 520 336.6 520.2 335.8 520.4 335 520.8 333.7 521.8 332.3 522.8 330.9 524.5 329.5 526.7 328.5 529 327.4 531.8 326.8 534.9 326.3 547.5 324.2 565.7 321.4 588.3 318.1 610.9 314.8 637.8 310.9 667.7 306.8 675.2 305.8 682.9 304.8 690.7 303.8 692.7 303.6 694.6 303.3 696.7 303.2 698.8 302.9 701 303.4 702.9 304.3 706.7 306.1 709.9 309.4 711.5 313.4 712.4 315.4 712.7 317.6 712.8 319.7 712.9 321.8 713 323.9 713 326 713.1 330.2 713.1 334.4 713 338.7 712.9 347.2 712.8 355.8 712.5 364.6L712.5 364.7 712.5 364.8C712.3 365.7 712.1 366.6 711.9 367.5 710.7 372.3 708 376.7 704.3 379.9 700.6 383.1 695.9 385 691.2 385.6 682.1 387.2 673.1 388.7 664.3 390.3 646.7 393.3 629.7 396.1 613.8 398.8 597.8 401.4 582.7 403.8 568.8 405.7 561.8 406.6 555.2 407.7 548.6 407.8 545.2 407.6 542.3 406.4 539.4 405.2 536.6 404 533.9 402.6 531.5 400.9L531.3 400.8 531.3 400.6C527.7 380.8 524.8 365 522.9 354.1 522 348.7 521.2 344.6 520.7 341.6 520.5 340.2 520.3 339.2 520.2 338.4 520.2 337.4 520.1 337.1 520.1 337.1Z" fill="#263238"/></g></g><g opacity="0.3"><path d="M532.3 327.8C580.8 320 627.4 314.4 675.8 306.5 682.3 305.4 689.6 304.3 696.2 303.8 699 303.6 700.9 303.7 703.4 305.3 704.9 306.3 707.2 307.3 707.1 309.1 707 313 701.9 313.6 698.1 314.2 648.3 321.9 597.8 328.3 548 336 543.8 336.7 541.7 335.8 537.5 335.1 534.4 334.6 528.8 333.2 524 332 523.9 332.2 527.2 328.6 532.3 327.8Z" fill="#FFFFFF"/></g><g><path d="M548.4 404.1C548.3 404.1 548.1 402.9 547.7 400.8 547.4 398.3 547 395.2 546.5 391.6 545.6 383.4 544.4 372.9 543.1 361.3 542.4 355.4 541.7 349.8 541.1 344.6 540.9 343.3 540.8 342.1 540.6 340.9 540.4 339.7 540.3 338.5 539.8 337.7 538.7 336.2 536.5 335.5 534.7 334.9 527.3 332.9 522.3 332.9 522.4 332.5 522.4 332.4 523.6 332.3 525.8 332.4 528 332.5 531.2 332.7 535 333.7 536 333.9 537 334.2 538 334.7 539 335.1 540.1 335.7 540.9 336.9 541.6 338.1 541.7 339.4 541.9 340.6 542.1 341.8 542.3 343.1 542.5 344.3 543.3 349.4 543.9 355.1 544.6 361 545.9 372.9 546.9 383.6 547.6 391.4 547.9 395.3 548.1 398.5 548.2 400.6 548.5 402.9 548.5 404.1 548.4 404.1Z" fill="#263238"/></g><g><path d="M272 396.5C272 396.5 272.3 396.5 272.8 396.4 273.4 396.4 274.3 396.4 275.3 396.4 277.6 396.4 280.8 396.5 284.8 396.5 293.2 396.7 305.2 397 320.1 397.3 327.6 397.5 335.8 397.7 344.7 398 349.1 398.1 353.7 398.2 358.5 398.5 360.9 398.7 363.3 398.9 365.8 399.8 366.4 400 367 400.3 367.6 400.6 368.2 401 368.8 401.7 369 402.3 369.6 403.6 369.9 404.8 370.1 406.1 370.5 408.7 370.5 411.3 370.5 413.9 370.5 416.5 370.5 419.1 370.5 421.7 370.5 427 370.5 432.4 370.5 437.9 370.5 449 370.5 460.5 370.5 472.3L370.5 472.4 370.5 472.4C369.6 477.4 365.8 481.5 361.2 483.4 359 484.4 356.3 485 353.9 484.9 351.4 485 349 485 346.5 485 319.4 484.3 293.7 482 270.3 480.1 267.4 479.8 264.5 479.6 261.6 479.4 260.2 479.3 258.8 479.1 257.4 479 256 478.9 254.5 478.7 253.1 478.2 250.3 477.1 248 475 246.8 472.4 246.2 471.1 245.8 469.7 245.7 468.3 245.6 466.9 245.7 465.6 245.7 464.3 245.9 453.9 246.1 444.2 246.3 435.3 246.5 426.4 246.7 418.4 246.9 411.4 246.9 409.6 247.1 407.8 247.6 406.2 248.2 404.6 249.1 403.2 250.1 402 251.1 400.9 252.1 399.8 253 398.8L253.6 398C253.8 397.7 254.3 397.4 254.6 397.4 255.3 397.2 255.9 397.1 256.5 396.9 261.5 396.2 265.3 396.3 267.9 396.3 269.1 396.3 270.1 396.3 270.9 396.3 271.6 396.4 272 396.4 272 396.5 272 396.5 271.7 396.6 271 396.6 270.2 396.6 269.3 396.7 268 396.7 265.4 396.9 261.5 396.9 256.7 397.7 256.1 397.8 255.5 397.9 254.9 398.2 254.6 398.3 254.5 398.4 254.2 398.6L253.6 399.4C252.7 400.4 251.8 401.5 250.8 402.7 249.9 403.9 249 405.1 248.5 406.6 248 408.1 247.9 409.7 247.9 411.5 247.8 418.6 247.7 426.6 247.6 435.4 247.5 444.3 247.3 454 247.2 464.4 247.1 467.1 247 469.6 248.2 471.9 249.3 474.2 251.3 476 253.7 476.9 254.9 477.4 256.2 477.5 257.6 477.6 259 477.7 260.4 477.8 261.8 478 264.6 478.2 267.5 478.5 270.5 478.7 293.9 480.5 319.6 482.7 346.6 483.4 349 483.4 351.5 483.5 353.9 483.3 356.3 483.3 358.5 482.8 360.7 481.9 364.9 480.2 368.2 476.4 369 472.2L369 472.3C369 460.4 369 448.9 369 437.9 369 432.4 369 427 369 421.7 369 419.1 369 416.4 369 413.9 369 411.3 369 408.8 368.7 406.4 368.5 405.2 368.3 404 367.8 403 367.6 402.5 367.3 402.2 366.9 401.9 366.4 401.6 365.9 401.4 365.4 401.2 363.2 400.4 360.8 400.2 358.5 400 353.8 399.6 349.2 399.6 344.8 399.4 335.9 399.1 327.7 398.8 320.2 398.5 305.3 397.9 293.3 397.5 284.9 397.2 280.8 397 277.7 396.9 275.4 396.8 274.4 396.7 273.6 396.7 272.9 396.6 272.3 396.5 272 396.5 272 396.5Z" fill="#263238"/></g><g><path d="M359.7 482.5C359.6 482.5 359.6 481.9 359.5 480.7 359.5 479.3 359.4 477.6 359.4 475.5 359.3 470.7 359.3 464.2 359.2 456.2 359.2 448 359.1 438.3 359.1 427.7 359.1 425 359 422.3 359.2 419.4 359.3 418 359.3 416.7 358.8 415.6 358.3 414.6 357.2 413.8 356 413.4 353.5 412.6 350.3 412.8 347.4 412.5 344.4 412.3 341.3 412.1 338.2 411.9 325.8 411.1 314 410.3 303.3 409.9 292.6 409.5 282.9 409.7 274.8 409.6 266.8 409.5 260.3 409.5 255.5 409.4 253.4 409.3 251.6 409.3 250.3 409.3 249.1 409.3 248.5 409.2 248.5 409.1 248.5 409 249.1 409 250.3 408.9 251.7 408.8 253.4 408.8 255.5 408.7 260.3 408.6 266.8 408.5 274.7 408.3 282.8 408.2 292.5 407.9 303.3 408.2 314.1 408.5 325.9 409.2 338.3 410.1 341.4 410.3 344.4 410.5 347.5 410.7 350.5 411 353.5 410.8 356.6 411.7 358.1 412.2 359.6 413.2 360.4 414.8 361.1 416.4 361 418 361 419.4 360.8 422.1 360.9 424.9 360.9 427.6 360.8 438.3 360.7 448 360.6 456.2 360.5 464.2 360.4 470.7 360.3 475.5 360.2 477.6 360.2 479.4 360.1 480.7 359.8 481.9 359.7 482.5 359.7 482.5Z" fill="#263238"/></g><path d="M359 414.5 367.4 401.4C367.4 401.4 370.2 403.7 369.8 414.5 369.5 422 370.8 472.6 369.8 474.1 368.8 475.6 364.9 482.8 360.1 483.2 360.1 483.2 359.5 435.7 360.1 431.9 360.6 428 360.5 414.5 359 414.5Z" opacity="0.3"/><g><path d="M252.2 459.8C252 459.8 251.5 457.3 251.1 453.2 250.7 449.1 250.3 443.4 250.3 437.2 250.3 430.9 250.5 425.3 250.9 421.2 251.3 417.1 251.7 414.6 251.9 414.6 252.4 414.6 251.9 424.7 252 437.2 252 449.7 252.7 459.8 252.2 459.8Z" fill="#FFFFFF"/></g><g opacity="0.3"><path d="M362 401.8C360.5 399.2 357 398.8 354 398.7 323.9 397.3 294.5 396.2 264 396.7 260.9 396.8 258 396.5 255.1 397.7 252.2 398.9 248.9 404.4 247.9 407.5L248.2 407.9C279.8 409 311.4 410.1 343.1 411.3 346.5 411.4 350 411.5 353.4 411.1 355.9 410.8 358.5 410.2 360.4 408.5 362.3 407 363.2 404 362 401.8Z" fill="#FFFFFF"/></g><g><path d="M370.1 407.5C370.1 407.5 414.3 406 417.4 404.7 420.6 403.4 483.4 354.3 498.6 346.7 513.8 339.1 523 336.6 523 336.6 523 336.6 528.3 336.4 529.6 344.3 530.7 350.9 538 403.5 538.3 404.2 538.6 404.9 450.4 466.9 439.3 468.5 428.2 470.1 369.7 472.5 369.7 472.5L370.1 407.5Z" fill="#FF725E"/><g><path d="M370.1 407.5C370.1 407.5 370.1 407.9 370.2 408.7 370.2 409.5 370.2 410.6 370.2 412.1 370.2 415.1 370.2 419.4 370.3 425 370.3 436.2 370.3 452.4 370.3 472.5L369.7 471.9C380.9 471.3 393.4 470.7 407.1 470.1 413.9 469.7 421 469.3 428.3 468.8 431.9 468.5 435.7 468.3 439.4 467.8 442.8 466.9 446.2 464.8 449.6 463 463.1 455.2 476.8 446 491.1 436.5 505.3 426.9 520.1 416.7 534.9 406L536.9 404.5 537.4 404.1 537.6 403.9C537.8 403.7 537.5 403.9 537.5 404.3 537.7 404.8 537.7 404.5 537.6 404.3L537.5 403.9 537.4 403.2 536.7 398.3C536.2 395.1 535.8 391.8 535.3 388.6 534.4 382.2 533.5 375.9 532.6 369.6 531.7 363.4 530.8 357.2 530 351.2 529.5 348.2 529.3 345.1 528.5 342.4 528.1 341.1 527.4 339.8 526.5 338.9 525.6 338 524.3 337.4 523.2 337.4L523.4 337.4C517.5 339.2 511.7 341.6 506.2 344.1 503.5 345.4 500.7 346.6 498.1 348 495.5 349.4 493.1 351 490.6 352.6 480.9 359 471.9 365.6 463.4 371.8 446.4 384.2 431.7 395.5 419.1 404.4L417.8 405.2C417.3 405.4 416.8 405.5 416.3 405.6 415.4 405.7 414.4 405.8 413.5 405.9 411.7 406.1 409.9 406.2 408.2 406.3 404.8 406.5 401.5 406.7 398.5 406.8 392.5 407 387.3 407.2 383.1 407.4 379 407.5 375.8 407.6 373.5 407.7 372.5 407.7 371.6 407.7 371 407.7 370.4 407.6 370.1 407.5 370.1 407.5 370.1 407.5 370.4 407.4 370.9 407.4 371.5 407.4 372.3 407.3 373.4 407.2 375.7 407.1 378.9 406.9 383 406.7 387.2 406.5 392.4 406.2 398.4 405.9 401.4 405.7 404.6 405.5 408.1 405.3 409.8 405.2 411.6 405 413.4 404.8 414.3 404.7 415.2 404.6 416.1 404.5 416.6 404.4 416.9 404.3 417.4 404.2L418.5 403.5C430.9 394.5 445.6 383.1 462.5 370.6 471 364.4 479.9 357.8 489.6 351.3 492.1 349.7 494.5 348.1 497.2 346.6 499.8 345.1 502.6 343.9 505.3 342.6 510.9 340.1 516.6 337.7 522.7 335.8L522.8 335.8 522.9 335.8C526.6 335.9 529 339 529.8 342 530.7 345.1 530.9 348 531.4 351 532.3 357 533.1 363.2 534 369.4 534.9 375.6 535.8 382 536.7 388.4 537.2 391.6 537.6 394.8 538.1 398.1L538.8 403 538.9 403.5 538.9 403.7C538.9 403.8 538.9 403.7 538.9 404.3 538.8 404.8 538.4 405.2 538.4 405.2L538.1 405.4 537.6 405.8 535.6 407.3C521 418 506.2 428.1 492 437.7 477.7 447.3 463.9 456.4 450.3 464.2 448.6 465.2 446.9 466.1 445.1 467 443.3 467.8 441.7 468.7 439.6 469.2 435.8 469.7 432.1 469.9 428.4 470.2 421.1 470.7 414 471.1 407.2 471.4 393.6 472 381 472.5 369.8 473L369.2 473 369.2 472.4C369.5 452.1 369.7 435.8 369.8 424.6 369.9 419.1 370 414.9 370 411.9 370 410.5 370.1 409.5 370.1 408.6 370.1 407.9 370.1 407.5 370.1 407.5Z" fill="#263238"/></g></g><g><path d="M0.5 467.7 0.6 467.6C0.6 467.6-2.4 476.4 57.7 504.5 77.2 513.6 100.9 520.3 124.1 525 174.4 535.3 226 537.3 277 532.1 294.4 530.3 312.7 528 327.7 525 366.4 517.2 395.8 512.4 432.4 498 470.4 483 476.4 474.1 498.9 455 516.3 440.2 530.2 426.4 555.6 417.7 557.7 416.3 559.9 415 562.2 413.6 562.2 413.6 694.8 389 713.6 388.8 715.3 388.7 716.7 388.7 717.8 388.8 733.9 389.8 741.5 410.9 762.8 416.2 785.6 421.8 798.8 412 804.7 405.8 806.4 402.9 807.6 399.7 808.6 396.3 813.2 380.1 787 362.4 787 362.4 787 362.4 786.4 331.2 769.4 325.8 752.5 320.4 752.5 320.4 752.5 320.4 752.5 320.4 739.4 221 707.8 166.4 676.2 111.7 659.3 77.1 578.4 42.4 578.4 42.4 498.3-21.5 385.1 7.7 271.7 36.9 202.4 122.4 202.4 122.4 202.4 122.4 133.4 208.2 119.6 340.7 119.6 340.7 97.8 338 95.2 346.1 93 352.8 92.2 360.2 91.6 373.4L90.8 388.2C90.8 388.2-3.6 441.4 0.7 460.6 0.6 460.6-0.7 463.2 0.5 467.7Z" fill="none"/><path d="M762.7 416.1C741.4 410.8 733.8 389.7 717.7 388.7 716.6 388.6 715.2 388.7 713.5 388.7 714.4 388.7 715 388.7 715.4 388.8 723.1 391.1 737 425 764.7 424.2 786.6 423.6 798.3 416.5 804.5 405.5 798.7 412 785.5 421.8 762.7 416.1Z" opacity="0.3"/><path d="M432.4 497.9C395.8 512.3 366.5 517.1 327.7 524.9 312.7 527.9 294.4 530.3 277 532 225.9 537.3 174.3 535.2 124.1 524.9 101 520.2 77.2 513.6 57.7 504.4-2.4 476.2 0.6 467.5 0.6 467.5L0.5 467.6C2.7 476.3 14 492.1 60.7 510.5 131.5 538.4 192.3 559 339.4 531.2 480.9 504.5 502.1 452.3 555.5 417.5 530.1 426.2 516.2 440.1 498.8 454.8 476.4 474.1 470.4 483 432.4 497.9Z" opacity="0.3"/></g><g><path d="M699.8 313.4C699.8 313.5 699.3 313.6 698.3 313.8 697.1 314 695.6 314.3 693.8 314.6 689.6 315.3 684 316.2 677.2 317.3 663.2 319.5 643.8 322.5 622.3 325.7 600.9 328.9 581.4 331.7 567.4 333.6 560.6 334.5 554.9 335.3 550.7 335.8 548.9 336 547.4 336.2 546.2 336.3 545.2 336.4 544.6 336.4 544.6 336.4 544.6 336.3 545.1 336.2 546.2 336 547.4 335.8 548.9 335.5 550.7 335.2 554.9 334.5 560.5 333.6 567.3 332.5 581.3 330.3 600.7 327.3 622.2 324.1 643.6 320.9 663.1 318.1 677.1 316.2 683.9 315.3 689.6 314.5 693.8 314 695.6 313.8 697.1 313.6 698.4 313.5 699.3 313.4 699.8 313.4 699.8 313.4Z" fill="#263238"/></g><g><path d="M244.7 463.3C244.7 463.4 242.6 463.4 238.9 463.4 235.2 463.4 229.8 463.1 223.2 462.6 210 461.5 191.7 458.8 172.2 453.2 162.4 450.4 153.3 447.2 145.1 444 137 440.7 129.7 437.4 123.8 434.4 117.9 431.4 113.2 428.8 110 426.8 106.8 424.9 105.1 423.8 105.2 423.7 105.3 423.6 107.1 424.5 110.4 426.3 113.7 428.1 118.4 430.5 124.4 433.4 130.4 436.3 137.6 439.4 145.7 442.6 153.9 445.7 163 448.9 172.7 451.6 192.1 457.1 210.2 460 223.4 461.4 230 462.1 235.3 462.5 239 462.8 242.6 463 244.7 463.2 244.7 463.3Z" fill="#263238"/></g><g><path d="M89.7 385.2C89.8 385.2 89.8 385.8 89.7 386.8 89.6 388 89.5 389.5 89.4 391.3 89.1 395.5 88.6 401.1 88.1 408 87.8 411.5 87.5 415.4 87.1 419.5 86.9 421.5 86.8 423.7 86.6 425.8 86.5 427.5 88.9 428.4 91 428.7 95.4 429.2 100.4 428.7 105.1 427.3 105.7 427.1 106.3 426.9 106.8 426.7 107.3 426.5 107.9 426 107.9 426 108.1 425 108.3 423.6 108.4 422.3 108.7 419.7 109 417.1 109.3 414.4 110.4 403.7 111.5 393.5 112.5 384.2 113 379.6 113.5 375.2 114 371 114.6 366.9 115.4 363.1 116 359.6 117.2 352.8 118.3 347.3 119 343.1 119.4 341.3 119.7 339.9 119.9 338.6 120.1 337.6 120.3 337.1 120.3 337.1 120.4 337.1 120.3 337.7 120.2 338.7 120 339.9 119.8 341.4 119.6 343.2 119 347.4 118.1 352.9 117.1 359.7 116.6 363.2 115.9 367 115.4 371.1 115 375.2 114.5 379.6 114.1 384.3 113.1 393.6 112.1 403.8 111 414.5 110.7 417.2 110.4 419.8 110.1 422.4 109.9 423.8 109.8 424.9 109.5 426.4 108.9 427.5 108.2 427.7 107.6 428 107 428.3 106.3 428.5 105.7 428.7 100.7 430.1 95.7 430.7 90.9 430.1 89.7 429.9 88.5 429.6 87.4 429 86.3 428.4 85.2 427.1 85.3 425.7 85.5 423.3 85.7 421.3 85.9 419.2 86.3 415.1 86.7 411.3 87.1 407.7 87.9 400.9 88.5 395.3 88.9 391.1 89.1 389.3 89.3 387.8 89.5 386.6 89.6 385.7 89.7 385.2 89.7 385.2Z" fill="#263238"/></g><g><path d="M86.9 399.8C87 400 82.8 402.2 76 405.8 69.2 409.4 59.9 414.5 49.9 420.4 39.8 426.4 30.9 432.1 24.6 436.4 18.2 440.6 14.3 443.3 14.1 443.1 14 443 14.9 442.2 16.6 440.9 18.3 439.6 20.8 437.7 23.9 435.4 30.1 430.9 38.9 425 49 419 59.1 413 68.5 408.1 75.5 404.8 79 403.1 81.8 401.8 83.8 401 85.7 400.1 86.8 399.7 86.9 399.8Z" fill="#263238"/></g><g><path d="M93.7 362.8C93.7 362.4 98.6 362.1 104.7 362.1 110.8 362.1 115.7 362.5 115.7 362.9 115.7 363.4 110.8 363.8 104.7 363.8 98.6 363.8 93.6 363.4 93.7 362.8Z" fill="#263238"/></g><g><path d="M769.9 400.2C769.8 400.2 769.6 398.5 769.4 395.3 769.2 391.8 768.9 387.3 768.5 381.9 768.2 376.1 767.8 369.4 767.5 362 767.3 358.2 767.1 354.3 766.9 350.2 766.8 348.2 766.4 346.3 765.1 345 763.9 343.7 761.8 343.3 759.8 343.5 758.1 343.7 756.6 345.3 755.3 346.9 754.6 347.7 754 348.6 752.6 349.2 752.3 349.3 751.8 349.4 751.4 349.4 751 349.3 750.5 349 750.3 348.8 749.8 348.4 749.5 348 749.1 347.6 746.5 344.4 744.2 341.2 741.8 338.3 737 332.6 732.1 328 727.4 324.9 722.7 321.8 718.7 319.5 715.9 318 713.1 316.5 711.5 315.8 711.5 315.7 711.5 315.6 713.3 316 716.2 317.4 719.1 318.7 723.2 320.9 728 323.9 732.9 327 738 331.6 742.9 337.3 745.4 340.1 747.7 343.4 750.3 346.5 750.6 346.9 751 347.2 751.3 347.5 751.5 347.8 751.6 347.5 751.6 347.8 751.7 347.6 751.8 347.7 751.9 347.6 752.5 347.3 753.2 346.5 753.9 345.8 755.3 344.3 756.8 342.2 759.5 341.9 761.8 341.8 764.3 342.1 766.1 343.9 767.9 345.7 768.2 348.1 768.3 350.2 768.5 354.3 768.6 358.2 768.8 362 769.1 369.4 769.3 376.2 769.5 381.9 769.6 387.3 769.7 391.9 769.8 395.4 770 398.5 770 400.2 769.9 400.2Z" fill="#263238"/></g><g><path d="M749.5 347.2C749.1 347 752.4 341.5 752.8 333.9 753.3 326.3 752.4 320 753 320 753.4 319.9 755 326.1 754.5 334.1 754.2 338 753.2 341.6 752 343.9 750.8 346.2 749.7 347.3 749.5 347.2Z" fill="#263238"/></g><g><path d="M785.2 403.8C784.7 403.8 784.4 394.3 784.4 382.6 784.4 370.9 784.8 361.4 785.2 361.4 785.7 361.4 786 370.9 786 382.6 786 394.3 785.7 403.8 785.2 403.8Z" fill="#263238"/></g><g><path d="M797.8 392.8C797.5 392.8 797.4 391.6 796.7 389.9 796 388.2 794.8 385.9 792.9 383.8 789.1 379.6 784.9 377 785.3 376.5 785.4 376.3 786.5 376.8 788.2 377.8 789.9 378.8 792.1 380.4 794.2 382.7 796.3 385 797.5 387.6 797.9 389.6 798.3 391.5 798 392.8 797.8 392.8Z" fill="#263238"/></g><g><path d="M142.1 238C142 238 142.2 237.4 142.6 236.4 143.1 235.2 143.6 233.7 144.3 231.8 145 229.8 146 227.4 147.2 224.7 148.4 222 149.7 218.8 151.4 215.4 154.6 208.6 158.9 200.6 164.1 192.1 169.3 183.6 175.5 174.5 182.6 165.4 189.7 156.3 197.1 148.1 204.1 141 211.2 133.9 217.8 127.8 223.7 123 226.6 120.5 229.3 118.5 231.7 116.6 234.1 114.7 236.2 113.2 237.9 112 239.5 110.9 240.8 110 241.9 109.2 242.8 108.6 243.3 108.3 243.4 108.3 243.4 108.3 243 108.7 242.1 109.4 241.1 110.2 239.8 111.2 238.3 112.4 236.6 113.7 234.6 115.3 232.3 117.2 230 119.1 227.3 121.2 224.5 123.7 218.8 128.6 212.2 134.7 205.3 141.8 198.4 149 191.1 157.1 184 166.2 177 175.3 170.8 184.3 165.5 192.7 160.3 201.2 155.9 209 152.6 215.7 150.8 219 149.5 222.1 148.2 224.8 146.9 227.5 145.8 229.8 145 231.8 144.2 233.6 143.5 235 143 236.2 142.4 237.5 142.1 238 142.1 238Z" fill="#263238"/></g><path d="M89.4 429.1C89.4 429.1 92.9 363.6 95.5 363 98.1 362.4 115.7 362.1 115.8 363 115.9 367.8 109.8 424.8 108.8 426.1 105.9 429.7 89.4 429.1 89.4 429.1Z" opacity="0.3"/><g><path d="M418.9 21.5C418.9 21.6 417.3 22.1 414.4 22.8 411.5 23.5 407.3 24.7 402.1 26.3 391.8 29.5 377.8 34.7 363.2 42.4 348.7 50.2 336.5 58.8 328.1 65.6 323.9 69 320.6 71.8 318.3 73.9 316 75.9 314.7 77 314.7 76.9 314.6 76.8 315.8 75.6 317.9 73.4 320 71.2 323.2 68.2 327.3 64.7 335.5 57.6 347.7 48.7 362.3 40.9 377 33.1 391.2 28 401.6 25.1 406.8 23.7 411.1 22.7 414.1 22.1 417.2 21.6 418.8 21.4 418.9 21.5Z" fill="#FFFFFF"/></g><g opacity="0.3"><path d="M17.1 441C10.4 445.5 9.8 458 14.5 464.6 19.2 471.2 22.6 472.6 29.5 476.8 38.2 482 52.8 487.9 62.6 490.5 68 492 73.7 493.4 79.2 492.5 85.3 491.6 92.9 486 98 482.5 110.2 474.2 120.8 464 132.8 455.2 135.5 453.2 138.5 450.6 138.1 447.3 137.7 443 132.4 441.4 128.2 440.7 116.8 439 105.4 437.2 94 435.5 90.6 435 87.2 434.4 84.1 432.8 81.1 431.2 78.5 428.3 78.3 424.9 77.9 419.3 83.4 413.2 80 408.8 77 405 70.9 407.2 66.8 409.8 50.8 419.7 32.9 430 17.1 441" fill="#FFFFFF"/></g><g><path d="M257.8 398.3C258.2 398.6 257.5 400.3 256.4 402.1 255.2 404 253.9 405.3 253.5 405 253.1 404.7 253.8 403 254.9 401.2 256.2 399.3 257.4 398 257.8 398.3Z" fill="#FFFFFF"/></g><g><path d="M142.2 514.5C142.2 514.6 141.7 514.6 140.7 514.5 139.5 514.4 138.1 514.4 136.3 514.3 134.4 514.2 132.1 514 129.4 513.7 126.7 513.4 123.7 513.1 120.3 512.5 113.6 511.5 105.7 509.9 97 507.6 88.3 505.2 78.9 502.2 69.3 498.3 59.7 494.4 50.9 489.9 43 485.6 35.2 481.1 28.4 476.8 22.9 472.8 20.1 470.9 17.7 468.9 15.6 467.3 13.5 465.7 11.7 464.2 10.3 462.9 9 461.8 7.9 460.8 7 460 6.3 459.3 5.9 459 5.9 458.9 5.9 458.9 6.4 459.1 7.2 459.7 8.1 460.4 9.3 461.3 10.7 462.3 12.2 463.5 14 464.9 16.2 466.4 18.4 468 20.8 469.8 23.6 471.7 29.1 475.6 36 479.8 43.7 484.2 51.5 488.5 60.3 492.8 69.8 496.7 79.3 500.6 88.7 503.6 97.2 506 105.8 508.3 113.7 510.1 120.3 511.2 123.6 511.9 126.6 512.2 129.3 512.6 131.9 513 134.2 513.3 136.1 513.5 137.8 513.7 139.2 513.9 140.4 514 141.7 514.3 142.2 514.4 142.2 514.5Z" fill="#FFFFFF"/></g><path d="M370.1 420.1C370.1 420.1 409.2 421.5 419.5 416.3 429.7 411.1 486.3 368.5 496.3 358.7 506.3 348.9 529.3 344.2 529.1 343.4 528.6 341 527.1 339.1 525.7 337.8 524.4 336.6 522.6 336.2 521 336.9 514.7 339.6 497.7 346.9 493.5 349.6 488.4 352.9 417.4 404.7 417.4 404.7L370.1 407.5 370.1 420.1Z" fill="#FFFFFF" opacity="0.3"/><g><path d="M447.7 52.8C447.7 52.8 447.4 53 446.7 53.2 446 53.5 445 53.8 443.8 54.2 442.5 54.7 440.9 55.2 439.1 55.8 437.2 56.4 435.1 57.2 432.8 58.2 423.3 61.9 410 68.3 394.9 78.4 391 80.8 387.3 83.8 383.3 86.7 379.4 89.7 375.4 93 371.3 96.5 363.3 103.6 355.1 111.5 347.1 120.5 331 138.4 315.6 160.1 301.9 184.2 274.5 232.6 259 281 250.5 316.3 246.2 334 243.4 348.5 241.7 358.5 240.8 363.5 240.2 367.4 239.7 370.1 239.5 371.3 239.3 372.3 239.2 373.1 239.1 373.8 239 374.1 239 374.1 239 374.1 239 373.7 239.1 373.1 239.2 372.3 239.3 371.3 239.5 370.1 239.9 367.4 240.3 363.5 241.2 358.5 242.8 348.4 245.4 333.9 249.5 316.1 257.7 280.6 273.1 232 300.6 183.4 314.3 159.2 329.9 137.4 346.1 119.5 354.1 110.5 362.5 102.6 370.6 95.5 374.7 92.1 378.7 88.7 382.7 85.7 386.8 82.8 390.5 79.8 394.4 77.4 409.7 67.4 423.2 61.1 432.8 57.6 435.2 56.6 437.3 55.9 439.2 55.3 441 54.7 442.6 54.2 443.9 53.8 445.1 53.4 446.1 53.1 446.8 52.9 447.4 52.8 447.7 52.7 447.7 52.8Z" fill="#263238"/></g><path d="M523.8 427.2 522.2 423C522.2 423 545.3 394 571.9 388 598.5 382 699.5 362.7 718.7 363.4 738 364.2 740.5 378.7 740.5 378.7L604.2 400.6 561.7 410 523.8 427.2Z" fill="#FF725E"/><g><path d="M0.6 460.6C0.6 460.6 0.5 461.4 1.3 462.7 2.1 464 3.6 465.7 5.8 467.6 10.2 471.5 17.5 476.2 27.2 481.7 37 487.1 49.2 493.3 63.7 499.7 78.3 505.9 95.7 511.1 115.1 515.5 154 524.2 201.8 529.5 254.5 526.1 267.7 525.3 281.1 523.9 294.9 522.2 308.6 520.5 322.5 518.2 336.6 515.3 364.8 509.7 394.1 504.2 422.7 493.6 437 488.3 451 482.6 463.6 475 476.3 467.4 486.7 457 497.7 447.7 508.6 438.5 517 427 526.6 416.9 536.1 406.7 547.2 398.3 559.4 393 562.4 391.6 565.6 390.6 568.7 389.5 571.9 388.7 575 387.6 578.2 387 584.5 385.5 590.7 384.2 596.9 383 609.2 380.5 621.2 378.4 632.8 376.4 656 372.4 677.7 369.2 697.5 366.6 707.4 365.4 716.9 364.3 725.9 363.8 728.2 363.8 730.4 363.7 732.7 364.3 733.8 364.5 734.8 365.1 735.8 365.6 736.8 366.1 737.6 366.8 738.6 367.4 742 370 744.8 373.1 747.4 376.1 752.5 382.2 756.9 388.2 761.5 393.1 766.1 398.1 770.9 402.1 776.1 404.1 781.2 406.1 786.5 406.6 790.3 404.8 792.2 403.9 793.7 402.5 794.5 400.9 795.4 399.4 795.8 397.7 796.1 396.3 796.6 393.4 796.5 391.2 796.4 389.7 796.3 388.2 796.2 387.4 796.2 387.4 796.2 387.4 796.4 388.1 796.6 389.7 796.8 391.2 796.9 393.5 796.5 396.4 796.2 397.8 795.9 399.5 794.9 401.1 794.1 402.8 792.6 404.3 790.6 405.2 786.5 407.1 781.2 406.6 775.9 404.6 770.6 402.6 765.6 398.5 760.9 393.5 756.2 388.5 751.8 382.6 746.7 376.5 744.1 373.5 741.3 370.5 738 368 737.1 367.5 736.3 366.8 735.4 366.3 734.4 365.9 733.5 365.3 732.5 365.1 730.5 364.6 728.3 364.6 726 364.7 717 365.2 707.6 366.3 697.7 367.6 677.9 370.2 656.2 373.5 633.1 377.6 621.5 379.6 609.6 381.8 597.3 384.3 591.2 385.6 585 386.9 578.7 388.3 575.5 389 572.5 390 569.4 390.8 566.4 391.9 563.2 392.9 560.3 394.3 548.2 399.5 537.4 407.8 528 417.9 518.5 427.8 510.1 439.4 499 448.8 488 458 477.6 468.5 464.7 476.3 451.9 484 437.8 489.7 423.5 495 394.8 505.6 365.3 511.2 337.1 516.7 323 519.7 309 522 295.3 523.6 281.6 525.3 268.1 526.7 254.8 527.4 201.9 530.6 154 525.3 115 516.4 95.5 512 78.1 506.6 63.5 500.3 48.9 494 36.7 487.7 27 482.2 17.3 476.6 10 471.8 5.7 467.8 3.5 465.8 2 464.1 1.3 462.8 0.4 461.4 0.6 460.5 0.6 460.6Z" fill="#263238"/></g><g><path d="M638.9 399.6C638.9 399.7 637.7 400.1 635.4 400.6 633.1 401.1 629.8 401.8 625.8 402.6 617.2 404.1 606.2 406.1 593.9 408.3 587.7 409.6 581.6 410.2 576.2 411 570.8 411.8 566.1 413.2 562.3 414.8 554.7 418 550.9 421.6 550.7 421.3 550.6 421.2 551.6 420.3 553.4 418.9 555.3 417.5 558.1 415.5 561.9 413.8 565.7 412 570.5 410.5 576 409.6 581.5 408.7 587.4 408.1 593.6 406.8 606.1 404.5 617.4 402.9 625.6 401.6 629.4 401 632.7 400.5 635.3 400.1 637.6 399.6 638.9 399.4 638.9 399.6Z" fill="#263238"/></g><g><path d="M721.3 267.8C721.3 267.8 712.6 190.2 664.3 132.4L619.5 158.6C655.3 208.7 646 278.6 646 278.6L721.3 267.8Z" fill="#FFFFFF" opacity="0.3"/><path d="M593.7 81.7C465.2 34.1 392 149.1 392 149.1 392 149.1 442.8 96.9 547.8 110.4 570.5 113.3 585.6 118.4 599.1 131.4L632.1 102.3C620.7 94 608 87 593.7 81.7Z" fill="#FFFFFF" opacity="0.3"/></g><g><path d="M410.2 419.4C410.3 419.8 404.1 421.2 396.3 421.5 388.5 421.8 382.3 420.9 382.3 420.5 382.3 420 388.6 420.1 396.2 419.8 403.9 419.5 410.1 418.9 410.2 419.4Z" fill="#FFFFFF"/></g><g><path d="M508.6 350.6C508.7 350.8 505.6 353.1 500.4 356.9 495.2 360.6 488.1 365.8 480.3 371.6 472.5 377.4 465.6 382.8 460.6 386.7 455.6 390.6 452.4 393 452.3 392.8 452.2 392.6 455 389.9 459.9 385.8 464.7 381.7 471.6 376.1 479.4 370.3 487.2 364.5 494.4 359.4 499.8 356 505.1 352.4 508.5 350.5 508.6 350.6Z" fill="#FFFFFF"/></g><g><path d="M97 358.7C96.5 358.6 96.6 356 97.2 352.9 97.8 349.8 98.6 347.3 99.1 347.4 99.6 347.5 99.5 350.1 98.9 353.2 98.3 356.3 97.5 358.8 97 358.7Z" fill="#FFFFFF"/></g><g><path d="M152.5 233.7C152.6 233.7 152.1 235.5 151 238.5 150 241.6 148.5 246.1 146.8 251.6 143.4 262.7 139.1 278.2 134.9 295.5 130.8 312.8 127.5 328.6 125.5 340 124.5 345.7 123.8 350.4 123.3 353.6 122.8 356.8 122.5 358.6 122.4 358.6 122.3 358.6 122.4 356.8 122.6 353.5 122.9 350.2 123.4 345.5 124.3 339.8 126 328.2 129.1 312.4 133.2 295.1 137.4 277.8 141.8 262.3 145.6 251.2 147.4 245.7 149.1 241.2 150.3 238.2 151.6 235.3 152.4 233.6 152.5 233.7Z" fill="#FFFFFF"/></g><g><path d="M273.6 118.3C273.5 118.3 273.6 116.9 273.9 114.3 274.3 111.4 274.7 107.9 275.3 103.6 275.8 99.1 277 93.8 276.9 87.8 276.9 84.8 277.1 81.6 276.6 78.6 276.1 75.6 274.3 72.6 271.6 70.8 269.1 69.1 265.4 69.5 262.8 70.8 260.1 72.2 258.1 74.7 256.3 77 252.8 81.8 250.6 86.7 249 90.9 245.9 99.4 244.6 104.9 244.3 104.8 244.2 104.8 244.4 103.4 245 100.9 245.6 98.4 246.5 94.8 247.9 90.5 249.4 86.2 251.5 81 255 76 256.8 73.6 258.9 70.9 262 69.3 263.6 68.5 265.3 68 267.1 67.9 268.9 67.8 270.9 68.1 272.5 69.3 275.6 71.4 277.5 74.8 278.1 78.2 278.7 81.6 278.4 84.8 278.4 87.8 278.4 93.9 277 99.3 276.4 103.7 275.6 107.9 275 111.5 274.5 114.3 274 116.9 273.7 118.3 273.6 118.3Z" fill="#263238"/></g><g><path d="M268.5 120.1C268.2 120.5 263.8 116.8 257.5 114.2 251.2 111.5 245.5 110.9 245.5 110.4 245.5 110 251.5 109.8 258.1 112.6 264.8 115.4 268.8 119.9 268.5 120.1Z" fill="#FFFFFF"/></g><g><path d="M334.8 30.1C334.9 30.3 331 31.9 324.8 34.5 318.6 37.2 310.2 41 301.2 46 292.2 50.9 284.4 55.9 278.8 59.7 273.2 63.5 269.9 65.9 269.7 65.7 269.6 65.6 270.4 64.9 271.8 63.7 273.2 62.5 275.4 60.8 278.1 58.8 283.5 54.8 291.3 49.6 300.3 44.6 309.4 39.7 317.9 35.9 324.2 33.5 327.4 32.3 329.9 31.4 331.8 30.9 333.7 30.2 334.7 30 334.8 30.1Z" fill="#FFFFFF"/></g></g><g><path d="M419.2 419.5C419.2 420 409.8 420.9 398.2 421.6 386.6 422.3 377.1 422.5 377.1 422 377.1 421.5 386.5 420.6 398.1 419.9 409.7 419.2 419.2 419 419.2 419.5Z" fill="#FFFFFF"/></g><g><path d="M504.7 353.5C504.8 353.6 503.8 354.4 502.1 355.7 500.1 357.2 497.6 359 494.7 361.2 488.5 365.8 479.9 372.2 470.6 379.4 461.3 386.7 453 393.4 447 398.3 444.2 400.6 441.9 402.5 439.9 404.1 438.2 405.5 437.2 406.2 437.2 406.1 437.1 406 437.9 405.1 439.5 403.6 441.1 402.1 443.4 400 446.3 397.4 452.1 392.2 460.3 385.3 469.6 378.1 478.9 370.8 487.6 364.6 494.1 360.2 497.3 358 499.9 356.3 501.8 355.2 503.6 354 504.6 353.4 504.7 353.5Z" fill="#FFFFFF"/></g></g></svg>